<svg width="134" height="17" viewBox="0 0 134 17" fill="none" xmlns="http://www.w3.org/2000/svg">
<path d="M11.2354 7.95361V8.09277C11.2256 8.50293 11.1816 8.92773 11.1035 9.36719C11.0303 9.80664 10.9253 10.2461 10.7886 10.6855C10.6519 11.125 10.4883 11.5596 10.2979 11.9893C10.1074 12.4189 9.89258 12.8291 9.65332 13.2197C9.41895 13.6152 9.16504 13.9839 8.8916 14.3257C8.61816 14.6724 8.33008 14.9775 8.02734 15.2412L6.93604 14.6113C7.10693 14.3232 7.26074 14.0083 7.39746 13.6665C7.53906 13.3296 7.66602 12.9756 7.77832 12.6045C7.89062 12.2334 7.98584 11.8525 8.06396 11.4619C8.14697 11.0713 8.21533 10.6831 8.26904 10.2974C8.32275 9.91162 8.36182 9.5332 8.38623 9.16211C8.41553 8.78613 8.43018 8.42969 8.43018 8.09277C8.43018 7.8291 8.42773 7.53125 8.42285 7.19922C8.42285 6.8623 8.40332 6.52051 8.36426 6.17383C8.33008 5.82715 8.27148 5.49023 8.18848 5.16309C8.10547 4.83105 7.98096 4.53564 7.81494 4.27686C7.65381 4.01807 7.44385 3.81055 7.18506 3.6543C6.93115 3.49805 6.61377 3.41992 6.23291 3.41992C5.896 3.41992 5.60547 3.47852 5.36133 3.5957C5.12207 3.70801 4.91699 3.86182 4.74609 4.05713C4.58008 4.24756 4.4458 4.46973 4.34326 4.72363C4.24561 4.97754 4.16748 5.24609 4.10889 5.5293C4.05518 5.80762 4.01855 6.09082 3.99902 6.37891C3.98438 6.66211 3.97705 6.93066 3.97705 7.18457V9.22803H7.13379V10.4365H3.97705V13H1.06934V7.63867C1.06934 6.87207 1.19141 6.15918 1.43555 5.5C1.67969 4.84082 2.02393 4.26953 2.46826 3.78613C2.91748 3.29785 3.45459 2.91699 4.07959 2.64355C4.70947 2.36523 5.41016 2.22607 6.18164 2.22607C6.7041 2.22607 7.19238 2.30176 7.64648 2.45312C8.10547 2.59961 8.52295 2.80469 8.89893 3.06836C9.2749 3.32715 9.60938 3.63721 9.90234 3.99854C10.2002 4.35498 10.4468 4.74561 10.6421 5.17041C10.8423 5.59521 10.9937 6.04443 11.0962 6.51807C11.1987 6.9917 11.2451 7.47021 11.2354 7.95361ZM15.3296 13H12.854V0.644043H13.8062L15.3296 3.21484V13ZM30.4834 8.06348C30.4834 8.64453 30.415 9.25 30.2783 9.87988C30.1416 10.5098 29.9487 11.125 29.6997 11.7256C29.4556 12.3213 29.1602 12.8853 28.8135 13.4175C28.4668 13.9497 28.0811 14.4111 27.6562 14.8018L26.7261 14.2964C26.8677 14.0425 26.9971 13.7568 27.1143 13.4395C27.2314 13.1221 27.3389 12.7876 27.4365 12.436C27.5342 12.0845 27.6196 11.7231 27.6929 11.3521C27.7661 10.981 27.8271 10.6123 27.876 10.2461C27.9297 9.875 27.9688 9.51611 27.9932 9.16943C28.0176 8.82275 28.0298 8.49805 28.0298 8.19531C28.0298 8.02441 28.0249 7.83887 28.0151 7.63867C28.0054 7.43848 27.9834 7.23828 27.9492 7.03809C27.9199 6.83789 27.8735 6.64746 27.8101 6.4668C27.7466 6.28125 27.6587 6.11768 27.5464 5.97607C27.439 5.82959 27.3022 5.71484 27.1362 5.63184C26.9751 5.54395 26.7798 5.5 26.5503 5.5C26.3257 5.5 26.1328 5.56104 25.9717 5.68311C25.8154 5.80029 25.6812 5.9541 25.5688 6.14453C25.4565 6.33496 25.3662 6.5498 25.2979 6.78906C25.2344 7.02832 25.1855 7.27002 25.1514 7.51416C25.1172 7.75342 25.0928 7.98291 25.0781 8.20264C25.0684 8.42236 25.0635 8.60791 25.0635 8.75928V13H22.5952V9.05957C22.5952 8.88867 22.5977 8.68359 22.6025 8.44434C22.6074 8.2002 22.6001 7.94629 22.5806 7.68262C22.5659 7.41895 22.5342 7.15771 22.4854 6.89893C22.4414 6.63525 22.3682 6.40088 22.2656 6.1958C22.168 5.99072 22.0337 5.82471 21.8628 5.69775C21.6919 5.56592 21.4771 5.5 21.2183 5.5C20.9985 5.5 20.813 5.56104 20.6616 5.68311C20.5151 5.80518 20.3906 5.96387 20.2881 6.15918C20.1904 6.34961 20.1123 6.56689 20.0537 6.81104C20 7.05029 19.9585 7.29199 19.9292 7.53613C19.9048 7.77539 19.8901 8.00488 19.8853 8.22461C19.8804 8.43945 19.8779 8.61768 19.8779 8.75928V13H17.395V4.54053H18.3472L19.2554 6.51074C19.4604 5.82715 19.7827 5.29492 20.2222 4.91406C20.6665 4.52832 21.2549 4.33545 21.9873 4.33545C22.6465 4.33545 23.1934 4.47217 23.6279 4.74561C24.0625 5.01904 24.4043 5.46338 24.6533 6.07861C24.7949 5.81006 24.9512 5.56836 25.1221 5.35352C25.2979 5.13867 25.4907 4.95557 25.7007 4.8042C25.9155 4.65283 26.1523 4.53809 26.4111 4.45996C26.6699 4.37695 26.9556 4.33545 27.2681 4.33545C27.8442 4.33545 28.335 4.43066 28.7402 4.62109C29.1504 4.80664 29.4849 5.06543 29.7437 5.39746C30.0024 5.72949 30.1904 6.125 30.3076 6.58398C30.4248 7.03809 30.4834 7.53125 30.4834 8.06348ZM40.6567 13H39.7046L38.606 11.1616C38.4985 11.4692 38.3496 11.7476 38.1592 11.9966C37.9736 12.2456 37.7563 12.4604 37.5073 12.6411C37.2632 12.8169 36.9922 12.9536 36.6943 13.0513C36.4014 13.1489 36.0913 13.1978 35.7642 13.1978C35.1196 13.1978 34.5435 13.083 34.0356 12.8535C33.5278 12.624 33.0981 12.3115 32.7466 11.916C32.395 11.5156 32.1265 11.0469 31.9409 10.5098C31.7554 9.97266 31.6626 9.39648 31.6626 8.78125C31.6626 8.16602 31.7554 7.58984 31.9409 7.05273C32.1265 6.51562 32.395 6.04932 32.7466 5.65381C33.0981 5.2583 33.5278 4.9458 34.0356 4.71631C34.5435 4.48682 35.1196 4.37207 35.7642 4.37207C36.2573 4.37207 36.709 4.46729 37.1191 4.65771C37.5342 4.84814 37.8882 5.146 38.1812 5.55127V1.42773H40.6567V13ZM38.1665 8.78125C38.1665 8.58594 38.1519 8.37109 38.1226 8.13672C38.0933 7.90234 38.0469 7.66553 37.9834 7.42627C37.9199 7.18701 37.8369 6.95508 37.7344 6.73047C37.6318 6.50586 37.5049 6.30566 37.3535 6.12988C37.207 5.9541 37.0337 5.81494 36.8335 5.7124C36.6382 5.60498 36.4136 5.55127 36.1597 5.55127C35.8813 5.55127 35.6396 5.60254 35.4346 5.70508C35.2295 5.80273 35.0537 5.93701 34.9072 6.10791C34.7607 6.27393 34.6387 6.4668 34.541 6.68652C34.4482 6.90625 34.375 7.13574 34.3213 7.375C34.2676 7.61426 34.2285 7.85596 34.2041 8.1001C34.1846 8.33936 34.1748 8.56641 34.1748 8.78125C34.1748 8.99609 34.1846 9.22559 34.2041 9.46973C34.2285 9.70898 34.2676 9.94824 34.3213 10.1875C34.375 10.4268 34.4482 10.6587 34.541 10.8833C34.6387 11.103 34.7607 11.2983 34.9072 11.4692C35.0537 11.6353 35.2295 11.7695 35.4346 11.8721C35.6396 11.9697 35.8813 12.0186 36.1597 12.0186C36.438 12.0186 36.6821 11.9697 36.8921 11.8721C37.1021 11.7744 37.2803 11.6426 37.4268 11.4766C37.5781 11.3057 37.7002 11.1128 37.793 10.8979C37.8906 10.6782 37.9663 10.4487 38.02 10.2095C38.0737 9.96533 38.1104 9.72119 38.1299 9.47705C38.1543 9.23291 38.1665 9.00098 38.1665 8.78125ZM49.9146 5.2876L48.5229 7.59473C48.4644 7.39941 48.3887 7.17969 48.2959 6.93555C48.2031 6.69141 48.0884 6.46436 47.9517 6.25439C47.8149 6.03955 47.6514 5.86133 47.4609 5.71973C47.2705 5.57324 47.0508 5.5 46.8018 5.5C46.5723 5.5 46.3721 5.55859 46.2012 5.67578C46.0352 5.79297 45.8936 5.94678 45.7764 6.13721C45.6592 6.32275 45.5615 6.53516 45.4834 6.77441C45.4102 7.00879 45.3516 7.24805 45.3076 7.49219C45.2686 7.73145 45.2417 7.96338 45.2271 8.18799C45.2124 8.40771 45.2051 8.59814 45.2051 8.75928V13H42.7222V4.54053H43.6743L44.6777 6.51074C44.8145 6.19336 44.9707 5.90283 45.1465 5.63916C45.3223 5.37061 45.5249 5.14111 45.7544 4.95068C45.9839 4.75537 46.2427 4.604 46.5308 4.49658C46.8237 4.38916 47.1533 4.33545 47.5195 4.33545C47.71 4.33545 47.9224 4.35254 48.1567 4.38672C48.3911 4.41602 48.6206 4.46973 48.8452 4.54785C49.0698 4.62109 49.2773 4.71875 49.4678 4.84082C49.6582 4.96289 49.8071 5.11182 49.9146 5.2876ZM59.2969 13H56.8213V11.9893C56.5283 12.3896 56.1743 12.6875 55.7593 12.8828C55.3491 13.0732 54.8975 13.1685 54.4043 13.1685C53.7598 13.1685 53.1836 13.0537 52.6758 12.8242C52.168 12.5947 51.7383 12.2822 51.3867 11.8867C51.0352 11.4863 50.7666 11.0176 50.5811 10.4805C50.3955 9.94336 50.3027 9.36719 50.3027 8.75195C50.3027 8.13672 50.3955 7.56055 50.5811 7.02344C50.7666 6.48633 51.0352 6.02002 51.3867 5.62451C51.7383 5.22412 52.168 4.90918 52.6758 4.67969C53.1836 4.4502 53.7598 4.33545 54.4043 4.33545C54.7314 4.33545 55.0415 4.38428 55.3345 4.48193C55.6323 4.57959 55.9033 4.71875 56.1475 4.89941C56.3965 5.0752 56.6138 5.29004 56.7993 5.54395C56.9897 5.79297 57.1387 6.07129 57.2461 6.37891L58.3447 4.54053H59.2969V13ZM56.8066 8.75195C56.8066 8.53223 56.7944 8.30029 56.77 8.05615C56.7505 7.81201 56.7139 7.57031 56.6602 7.33105C56.6064 7.0918 56.5308 6.86475 56.4331 6.6499C56.3403 6.43018 56.2183 6.2373 56.0669 6.07129C55.9204 5.90039 55.7422 5.76611 55.5322 5.66846C55.3223 5.5708 55.0781 5.52197 54.7998 5.52197C54.5215 5.52197 54.2798 5.57324 54.0747 5.67578C53.8696 5.77344 53.6938 5.90771 53.5474 6.07861C53.4009 6.24463 53.2788 6.4375 53.1812 6.65723C53.0884 6.87695 53.0151 7.10645 52.9614 7.3457C52.9077 7.58496 52.8687 7.82666 52.8442 8.0708C52.8247 8.31006 52.8149 8.53711 52.8149 8.75195C52.8149 8.9668 52.8247 9.19629 52.8442 9.44043C52.8687 9.68457 52.9077 9.92627 52.9614 10.1655C53.0151 10.4048 53.0884 10.6343 53.1812 10.854C53.2788 11.0737 53.4009 11.269 53.5474 11.4399C53.6938 11.606 53.8696 11.7402 54.0747 11.8428C54.2798 11.9404 54.5215 11.9893 54.7998 11.9893C55.0537 11.9893 55.2783 11.938 55.4736 11.8354C55.6738 11.728 55.8472 11.5864 55.9937 11.4106C56.145 11.2349 56.272 11.0347 56.3745 10.8101C56.4771 10.5854 56.5601 10.3535 56.6235 10.1143C56.687 9.875 56.7334 9.63818 56.7627 9.40381C56.792 9.16455 56.8066 8.94727 56.8066 8.75195ZM68.6499 10.2974C68.6499 10.6685 68.5962 10.998 68.4888 11.2861C68.3813 11.5742 68.2349 11.8257 68.0493 12.0405C67.8638 12.2505 67.644 12.4287 67.3901 12.5752C67.1362 12.7168 66.8628 12.8315 66.5698 12.9194C66.2817 13.0073 65.979 13.0708 65.6616 13.1099C65.3442 13.1489 65.0293 13.1685 64.7168 13.1685C64.2969 13.1685 63.9258 13.1416 63.6035 13.0879C63.2812 13.0342 62.9736 12.9487 62.6807 12.8315C62.3877 12.7095 62.0947 12.5532 61.8018 12.3628C61.5137 12.1724 61.1914 11.9404 60.835 11.667L62.2778 10.4878C62.4097 10.7368 62.583 10.9639 62.7979 11.1689C63.0176 11.3691 63.2446 11.5425 63.479 11.689C63.7134 11.8354 63.9404 11.9478 64.1602 12.0259C64.3799 12.104 64.5581 12.1431 64.6948 12.1431C64.8071 12.1431 64.9341 12.1406 65.0757 12.1357C65.2173 12.126 65.3613 12.1113 65.5078 12.0918C65.6543 12.0674 65.7983 12.0332 65.9399 11.9893C66.0815 11.9453 66.2061 11.8867 66.3135 11.8135C66.4258 11.7354 66.5137 11.6401 66.5771 11.5278C66.6455 11.4106 66.6797 11.2715 66.6797 11.1104C66.6797 10.9443 66.6357 10.8003 66.5479 10.6782C66.4648 10.5513 66.355 10.4414 66.2183 10.3486C66.0815 10.2559 65.9253 10.1777 65.7495 10.1143C65.5737 10.0508 65.3955 9.99463 65.2148 9.9458C65.0391 9.89697 64.8682 9.85547 64.7021 9.82129C64.5361 9.78223 64.3921 9.74561 64.27 9.71143C64.0454 9.64795 63.8086 9.58447 63.5596 9.521C63.3105 9.45264 63.064 9.37695 62.8198 9.29395C62.5757 9.20605 62.3413 9.10352 62.1167 8.98633C61.897 8.86914 61.7017 8.72998 61.5308 8.56885C61.3647 8.40283 61.2305 8.20996 61.1279 7.99023C61.0303 7.76562 60.9814 7.50439 60.9814 7.20654C60.9814 6.65967 61.0889 6.20312 61.3037 5.83691C61.5234 5.46582 61.8115 5.17041 62.168 4.95068C62.5244 4.72607 62.9297 4.56738 63.3838 4.47461C63.8379 4.38184 64.2993 4.33545 64.7681 4.33545C65.0903 4.33545 65.4297 4.36963 65.7861 4.43799C66.1426 4.50146 66.4893 4.59912 66.8262 4.73096C67.1631 4.85791 67.478 5.01416 67.771 5.19971C68.064 5.38525 68.3081 5.59766 68.5034 5.83691L67.0605 7.02344C66.9531 6.73047 66.8115 6.479 66.6357 6.26904C66.4648 6.05908 66.2769 5.88818 66.0718 5.75635C65.8716 5.61963 65.6641 5.51953 65.4492 5.45605C65.2393 5.39258 65.0439 5.36084 64.8633 5.36084C64.6875 5.36084 64.4897 5.36816 64.27 5.38281C64.0503 5.39746 63.8428 5.43896 63.6475 5.50732C63.457 5.57568 63.2935 5.68066 63.1567 5.82227C63.0249 5.95898 62.959 6.14941 62.959 6.39355C62.959 6.56934 62.998 6.7207 63.0762 6.84766C63.1592 6.96973 63.2666 7.07715 63.3984 7.16992C63.5303 7.25781 63.6792 7.3335 63.8452 7.39697C64.0161 7.45557 64.1895 7.50928 64.3652 7.55811C64.541 7.60205 64.7119 7.64111 64.8779 7.67529C65.0439 7.70947 65.1929 7.74609 65.3247 7.78516C65.5493 7.84863 65.7861 7.91455 66.0352 7.98291C66.2891 8.04639 66.5381 8.12207 66.7822 8.20996C67.0264 8.29297 67.2607 8.39307 67.4854 8.51025C67.7148 8.62256 67.915 8.76172 68.0859 8.92773C68.2568 9.09375 68.3936 9.28906 68.4961 9.51367C68.5986 9.7334 68.6499 9.99463 68.6499 10.2974ZM78.7354 13H76.2598V11.9893C75.9668 12.3896 75.6128 12.6875 75.1978 12.8828C74.7876 13.0732 74.3359 13.1685 73.8428 13.1685C73.1982 13.1685 72.6221 13.0537 72.1143 12.8242C71.6064 12.5947 71.1768 12.2822 70.8252 11.8867C70.4736 11.4863 70.2051 11.0176 70.0195 10.4805C69.834 9.94336 69.7412 9.36719 69.7412 8.75195C69.7412 8.13672 69.834 7.56055 70.0195 7.02344C70.2051 6.48633 70.4736 6.02002 70.8252 5.62451C71.1768 5.22412 71.6064 4.90918 72.1143 4.67969C72.6221 4.4502 73.1982 4.33545 73.8428 4.33545C74.1699 4.33545 74.48 4.38428 74.7729 4.48193C75.0708 4.57959 75.3418 4.71875 75.5859 4.89941C75.835 5.0752 76.0522 5.29004 76.2378 5.54395C76.4282 5.79297 76.5771 6.07129 76.6846 6.37891L77.7832 4.54053H78.7354V13ZM76.2451 8.75195C76.2451 8.53223 76.2329 8.30029 76.2085 8.05615C76.189 7.81201 76.1523 7.57031 76.0986 7.33105C76.0449 7.0918 75.9692 6.86475 75.8716 6.6499C75.7788 6.43018 75.6567 6.2373 75.5054 6.07129C75.3589 5.90039 75.1807 5.76611 74.9707 5.66846C74.7607 5.5708 74.5166 5.52197 74.2383 5.52197C73.96 5.52197 73.7183 5.57324 73.5132 5.67578C73.3081 5.77344 73.1323 5.90771 72.9858 6.07861C72.8394 6.24463 72.7173 6.4375 72.6196 6.65723C72.5269 6.87695 72.4536 7.10645 72.3999 7.3457C72.3462 7.58496 72.3071 7.82666 72.2827 8.0708C72.2632 8.31006 72.2534 8.53711 72.2534 8.75195C72.2534 8.9668 72.2632 9.19629 72.2827 9.44043C72.3071 9.68457 72.3462 9.92627 72.3999 10.1655C72.4536 10.4048 72.5269 10.6343 72.6196 10.854C72.7173 11.0737 72.8394 11.269 72.9858 11.4399C73.1323 11.606 73.3081 11.7402 73.5132 11.8428C73.7183 11.9404 73.96 11.9893 74.2383 11.9893C74.4922 11.9893 74.7168 11.938 74.9121 11.8354C75.1123 11.728 75.2856 11.5864 75.4321 11.4106C75.5835 11.2349 75.7104 11.0347 75.813 10.8101C75.9155 10.5854 75.9985 10.3535 76.062 10.1143C76.1255 9.875 76.1719 9.63818 76.2012 9.40381C76.2305 9.16455 76.2451 8.94727 76.2451 8.75195ZM85.73 8.39307H80.8081V7.04541H85.73V8.39307ZM89.187 13H87.8394V2.45312H89.729L96.1377 9.69678V2.45312H97.478V13H95.5884L89.187 5.76367V13ZM108.479 8.75195C108.479 9.19141 108.42 9.604 108.303 9.98975C108.186 10.3755 108.022 10.7319 107.812 11.0591C107.607 11.3862 107.358 11.6816 107.065 11.9453C106.772 12.2041 106.45 12.4238 106.099 12.6045C105.752 12.7852 105.378 12.9243 104.978 13.022C104.583 13.1196 104.175 13.1685 103.755 13.1685C103.335 13.1685 102.927 13.1196 102.532 13.022C102.136 12.9243 101.763 12.7852 101.411 12.6045C101.064 12.4238 100.745 12.2041 100.452 11.9453C100.159 11.6816 99.9072 11.3862 99.6973 11.0591C99.4922 10.7319 99.3311 10.3755 99.2139 9.98975C99.0967 9.59912 99.0381 9.18652 99.0381 8.75195C99.0381 8.31738 99.0967 7.90723 99.2139 7.52148C99.3311 7.13086 99.4922 6.77197 99.6973 6.44482C99.9072 6.11768 100.159 5.82471 100.452 5.56592C100.745 5.30225 101.064 5.08008 101.411 4.89941C101.763 4.71875 102.136 4.57959 102.532 4.48193C102.927 4.38428 103.335 4.33545 103.755 4.33545C104.175 4.33545 104.583 4.38428 104.978 4.48193C105.378 4.57959 105.752 4.71875 106.099 4.89941C106.45 5.08008 106.772 5.30225 107.065 5.56592C107.358 5.82471 107.607 6.11768 107.812 6.44482C108.022 6.77197 108.186 7.13086 108.303 7.52148C108.42 7.90723 108.479 8.31738 108.479 8.75195ZM105.959 8.75195C105.959 8.51758 105.945 8.271 105.916 8.01221C105.891 7.74854 105.847 7.49219 105.784 7.24316C105.72 6.98926 105.632 6.74756 105.52 6.51807C105.413 6.28369 105.278 6.08105 105.117 5.91016C104.956 5.73438 104.763 5.59521 104.539 5.49268C104.314 5.38525 104.053 5.33154 103.755 5.33154C103.472 5.33154 103.22 5.38525 103 5.49268C102.781 5.6001 102.588 5.74414 102.422 5.9248C102.261 6.10059 102.124 6.30566 102.012 6.54004C101.904 6.77441 101.816 7.01855 101.748 7.27246C101.68 7.52148 101.631 7.77539 101.602 8.03418C101.572 8.28809 101.558 8.52734 101.558 8.75195C101.558 8.97656 101.572 9.21826 101.602 9.47705C101.631 9.73096 101.68 9.98486 101.748 10.2388C101.816 10.4927 101.904 10.7368 102.012 10.9712C102.124 11.2007 102.261 11.4058 102.422 11.5864C102.588 11.7622 102.781 11.9038 103 12.0112C103.22 12.1187 103.472 12.1724 103.755 12.1724C104.048 12.1724 104.307 12.1211 104.531 12.0186C104.756 11.9111 104.949 11.7695 105.11 11.5938C105.276 11.418 105.413 11.2153 105.52 10.9858C105.627 10.7563 105.713 10.5146 105.776 10.2607C105.845 10.0068 105.891 9.75049 105.916 9.4917C105.945 9.23291 105.959 8.98633 105.959 8.75195ZM113.013 13H110.53V5.52197H108.992V4.54053H110.53V1.42773H113.013V4.54053H115.576V5.52197H113.013V13ZM118.381 8.98633C118.684 9.05469 118.987 9.1084 119.29 9.14746C119.592 9.18652 119.897 9.20605 120.205 9.20605C120.527 9.20605 120.825 9.17676 121.099 9.11816C121.377 9.05469 121.616 8.95215 121.816 8.81055C122.021 8.66406 122.183 8.47119 122.3 8.23193C122.417 7.99268 122.476 7.69482 122.476 7.33838C122.476 7.05029 122.437 6.78662 122.358 6.54736C122.28 6.30811 122.163 6.10303 122.007 5.93213C121.855 5.76123 121.667 5.62939 121.443 5.53662C121.218 5.43896 120.957 5.39014 120.659 5.39014C120.381 5.39014 120.129 5.44141 119.905 5.54395C119.685 5.64648 119.49 5.78564 119.319 5.96143C119.153 6.13232 119.009 6.33252 118.887 6.56201C118.77 6.7915 118.672 7.03076 118.594 7.27979C118.516 7.52881 118.459 7.78027 118.425 8.03418C118.391 8.28809 118.374 8.52734 118.374 8.75195C118.374 8.79102 118.374 8.83008 118.374 8.86914C118.374 8.9082 118.376 8.94727 118.381 8.98633ZM124.482 7.31641C124.482 7.66309 124.426 7.97314 124.314 8.24658C124.202 8.51514 124.048 8.75195 123.853 8.95703C123.662 9.16211 123.44 9.33545 123.186 9.47705C122.932 9.61865 122.661 9.73584 122.373 9.82861C122.085 9.9165 121.787 9.97998 121.479 10.019C121.177 10.0581 120.881 10.0776 120.593 10.0776C120.227 10.0776 119.866 10.0532 119.509 10.0044C119.153 9.95068 118.801 9.86768 118.455 9.75537C118.508 10.0776 118.594 10.3853 118.711 10.6782C118.828 10.9663 118.984 11.2202 119.18 11.4399C119.375 11.6548 119.614 11.8257 119.897 11.9526C120.186 12.0796 120.525 12.1431 120.916 12.1431C121.174 12.1431 121.421 12.104 121.655 12.0259C121.89 11.9478 122.104 11.8379 122.3 11.6963C122.495 11.5547 122.666 11.3862 122.812 11.1909C122.964 10.9956 123.086 10.7783 123.179 10.5391L124.248 10.9346C124.087 11.3203 123.865 11.6548 123.582 11.938C123.303 12.2163 122.986 12.4482 122.629 12.6338C122.278 12.8145 121.902 12.9487 121.501 13.0366C121.106 13.1245 120.713 13.1685 120.322 13.1685C119.678 13.1685 119.082 13.061 118.535 12.8462C117.988 12.6265 117.517 12.3213 117.122 11.9307C116.726 11.54 116.416 11.0737 116.191 10.5317C115.967 9.98975 115.854 9.39648 115.854 8.75195C115.854 8.10742 115.967 7.51416 116.191 6.97217C116.416 6.43018 116.726 5.96387 117.122 5.57324C117.517 5.18262 117.988 4.87988 118.535 4.66504C119.082 4.44531 119.678 4.33545 120.322 4.33545C120.635 4.33545 120.955 4.35742 121.282 4.40137C121.609 4.44531 121.926 4.51611 122.234 4.61377C122.542 4.70654 122.832 4.82861 123.105 4.97998C123.379 5.13135 123.616 5.31934 123.816 5.54395C124.021 5.76367 124.182 6.02002 124.299 6.31299C124.421 6.60596 124.482 6.94043 124.482 7.31641ZM133.308 10.2974C133.308 10.6685 133.254 10.998 133.147 11.2861C133.04 11.5742 132.893 11.8257 132.708 12.0405C132.522 12.2505 132.302 12.4287 132.048 12.5752C131.794 12.7168 131.521 12.8315 131.228 12.9194C130.94 13.0073 130.637 13.0708 130.32 13.1099C130.002 13.1489 129.688 13.1685 129.375 13.1685C128.955 13.1685 128.584 13.1416 128.262 13.0879C127.939 13.0342 127.632 12.9487 127.339 12.8315C127.046 12.7095 126.753 12.5532 126.46 12.3628C126.172 12.1724 125.85 11.9404 125.493 11.667L126.936 10.4878C127.068 10.7368 127.241 10.9639 127.456 11.1689C127.676 11.3691 127.903 11.5425 128.137 11.689C128.372 11.8354 128.599 11.9478 128.818 12.0259C129.038 12.104 129.216 12.1431 129.353 12.1431C129.465 12.1431 129.592 12.1406 129.734 12.1357C129.875 12.126 130.02 12.1113 130.166 12.0918C130.312 12.0674 130.457 12.0332 130.598 11.9893C130.74 11.9453 130.864 11.8867 130.972 11.8135C131.084 11.7354 131.172 11.6401 131.235 11.5278C131.304 11.4106 131.338 11.2715 131.338 11.1104C131.338 10.9443 131.294 10.8003 131.206 10.6782C131.123 10.5513 131.013 10.4414 130.876 10.3486C130.74 10.2559 130.583 10.1777 130.408 10.1143C130.232 10.0508 130.054 9.99463 129.873 9.9458C129.697 9.89697 129.526 9.85547 129.36 9.82129C129.194 9.78223 129.05 9.74561 128.928 9.71143C128.704 9.64795 128.467 9.58447 128.218 9.521C127.969 9.45264 127.722 9.37695 127.478 9.29395C127.234 9.20605 127 9.10352 126.775 8.98633C126.555 8.86914 126.36 8.72998 126.189 8.56885C126.023 8.40283 125.889 8.20996 125.786 7.99023C125.688 7.76562 125.64 7.50439 125.64 7.20654C125.64 6.65967 125.747 6.20312 125.962 5.83691C126.182 5.46582 126.47 5.17041 126.826 4.95068C127.183 4.72607 127.588 4.56738 128.042 4.47461C128.496 4.38184 128.958 4.33545 129.426 4.33545C129.749 4.33545 130.088 4.36963 130.444 4.43799C130.801 4.50146 131.147 4.59912 131.484 4.73096C131.821 4.85791 132.136 5.01416 132.429 5.19971C132.722 5.38525 132.966 5.59766 133.162 5.83691L131.719 7.02344C131.611 6.73047 131.47 6.479 131.294 6.26904C131.123 6.05908 130.935 5.88818 130.73 5.75635C130.53 5.61963 130.322 5.51953 130.107 5.45605C129.897 5.39258 129.702 5.36084 129.521 5.36084C129.346 5.36084 129.148 5.36816 128.928 5.38281C128.708 5.39746 128.501 5.43896 128.306 5.50732C128.115 5.57568 127.952 5.68066 127.815 5.82227C127.683 5.95898 127.617 6.14941 127.617 6.39355C127.617 6.56934 127.656 6.7207 127.734 6.84766C127.817 6.96973 127.925 7.07715 128.057 7.16992C128.188 7.25781 128.337 7.3335 128.503 7.39697C128.674 7.45557 128.848 7.50928 129.023 7.55811C129.199 7.60205 129.37 7.64111 129.536 7.67529C129.702 7.70947 129.851 7.74609 129.983 7.78516C130.208 7.84863 130.444 7.91455 130.693 7.98291C130.947 8.04639 131.196 8.12207 131.44 8.20996C131.685 8.29297 131.919 8.39307 132.144 8.51025C132.373 8.62256 132.573 8.76172 132.744 8.92773C132.915 9.09375 133.052 9.28906 133.154 9.51367C133.257 9.7334 133.308 9.99463 133.308 10.2974Z" fill="#EC7160"/>
</svg>
